<svg width="100" height="101" viewBox="0 0 100 101" fill="none" xmlns="http://www.w3.org/2000/svg">
<g clip-path="url(#clip0_2506_28485)">
<path d="M98.0043 28.5428L93.392 23.1478C95.3451 25.4321 95.7956 28.9592 94.2591 32.256L67.7749 89.0859C65.6682 93.6063 60.6239 95.9824 56.5082 94.3932L4.76675 74.4119C3.65272 73.9817 2.72107 73.305 1.99609 72.4572L6.60846 77.8522C7.33323 78.7 8.26508 79.3767 9.37911 79.8069L61.1206 99.7884C65.2362 101.378 70.2806 99.0015 72.3873 94.4811L98.8715 37.6512C100.408 34.3544 99.9575 30.8273 98.0043 28.543V28.5428Z" fill="url(#paint0_linear_2506_28485)"/>
<path d="M63.7962 100.497C62.862 100.497 61.9339 100.335 61.0481 99.993L9.30665 80.0115C8.18536 79.5785 7.22529 78.9011 6.4532 77.998L1.84084 72.603C1.82206 72.5818 1.80747 72.5569 1.79795 72.5297C1.78842 72.5025 1.78414 72.4736 1.78536 72.4446C1.78658 72.4157 1.79327 72.3873 1.80504 72.3611C1.81681 72.3349 1.83343 72.3114 1.85392 72.292C1.87441 72.2727 1.89837 72.2578 1.92439 72.2482C1.95042 72.2387 1.97799 72.2347 2.00549 72.2365C2.033 72.2383 2.05989 72.2458 2.0846 72.2587C2.1093 72.2715 2.13133 72.2894 2.14938 72.3113C2.87582 73.161 3.78028 73.7989 4.83725 74.2071L56.5787 94.1886C60.5912 95.7379 65.5296 93.406 67.5875 88.9901L94.0717 32.16C95.5173 29.0581 95.1894 25.5779 93.2365 23.2935C93.2009 23.2503 93.1828 23.1942 93.1862 23.1371C93.1895 23.08 93.2141 23.0266 93.2545 22.9884C93.295 22.9501 93.3481 22.9301 93.4024 22.9326C93.4568 22.9352 93.508 22.96 93.5451 23.0019L98.1574 28.3969C100.224 30.8142 100.577 34.4843 99.0565 37.747L72.5723 94.5769C70.8762 98.2164 67.2968 100.497 63.796 100.497L63.7962 100.497ZM3.73276 74.1634L6.76175 77.7063C7.48818 78.556 8.39243 79.1939 9.44961 79.6021L61.1911 99.5835C65.2034 101.133 70.1419 98.801 72.1999 94.3851L98.684 37.555C100.13 34.4531 99.8018 30.9728 97.8489 28.6885L94.8197 25.1455C95.6675 27.3268 95.5636 29.9497 94.4441 32.352L67.9599 89.1819C66.2639 92.8214 62.6844 95.1018 59.1836 95.1022C58.2495 95.1022 57.3214 94.9401 56.4356 94.5978L4.69408 74.6165C4.36391 74.4895 4.04267 74.3381 3.73276 74.1634Z" fill="#111111"/>
<path d="M90.6205 21.1931C94.7362 22.7824 96.3648 27.7356 94.2583 32.256L67.7741 89.0859C65.6674 93.6063 60.6231 95.9824 56.5075 94.3932L4.76596 74.4119C0.650334 72.8226 -0.978279 67.8694 1.12819 63.349L27.6124 6.5189C29.7191 1.99851 34.7634 -0.377641 38.8791 1.21162L90.6205 21.1931Z" fill="white"/>
<path d="M59.1844 95.1024C58.2503 95.1024 57.3224 94.9403 56.4364 94.598L4.6949 74.6165C2.77102 73.8735 1.29658 72.3772 0.543169 70.4029C-0.295933 68.2041 -0.15048 65.598 0.942385 63.2528L27.4266 6.42292C29.5752 1.81243 34.7451 -0.617383 38.9512 1.007L90.6927 20.9885C92.6165 21.7315 94.091 23.2279 94.8444 25.2022C95.6835 27.401 95.538 30.007 94.4452 32.3522L67.961 89.1821C66.2649 92.8216 62.6855 95.1024 59.1844 95.1024ZM36.1957 0.937191C32.8502 0.937191 29.4256 3.12529 27.7992 6.6149L1.31504 63.4448C0.273843 65.6791 0.132747 68.1561 0.928276 70.2403C1.63749 72.0986 3.02603 73.5072 4.83807 74.207L56.5796 94.1886C60.5916 95.7379 65.5304 93.406 67.5883 88.9901L94.0725 32.1602C95.1137 29.9259 95.2548 27.449 94.4593 25.3647C93.7501 23.5064 92.3615 22.0978 90.5495 21.398L38.808 1.41648C37.9662 1.09143 37.0837 0.937191 36.1957 0.937191Z" fill="#111111"/>
<path d="M41.6728 60.8056C40.6862 60.4244 39.4794 60.993 38.9754 62.0743C36.9411 66.4396 34.8222 69.9565 32.9014 72.707C32.2136 73.6951 32.3578 74.9684 33.2233 75.555C33.328 75.6257 33.4398 75.684 33.5567 75.7289C34.3896 76.0505 35.4353 75.6962 36.0381 74.8308C38.1166 71.8558 40.3838 68.0852 42.543 63.452C43.047 62.3706 42.6573 61.1858 41.6728 60.8056Z" fill="#F5F5F5"/>
<path d="M34.1946 76.0636C33.9528 76.0645 33.7127 76.0206 33.4854 75.9338C33.3543 75.8833 33.2288 75.8178 33.1113 75.7385C32.6795 75.446 32.3892 74.9863 32.2938 74.444C32.1836 73.8185 32.344 73.1385 32.7343 72.5781C34.9586 69.3928 36.9958 65.8266 38.7893 61.9784C39.3379 60.8012 40.6636 60.1834 41.7447 60.6007C42.2474 60.7949 42.6327 61.1863 42.8298 61.7028C43.0473 62.2724 43.0108 62.945 42.7296 63.5482C40.8037 67.6812 38.6086 71.5207 36.2056 74.9601C35.7189 75.6591 34.9459 76.0636 34.1948 76.0636H34.1946ZM41.0265 60.9048C40.2849 60.9048 39.5241 61.3928 39.1618 62.1704C37.3576 66.042 35.3076 69.6304 33.0688 72.8362C32.7461 73.2998 32.6123 73.8569 32.7017 74.3646C32.7762 74.7874 33.0013 75.1451 33.3358 75.3716C33.4267 75.4329 33.5252 75.4842 33.6284 75.5241C34.3907 75.8186 35.334 75.4728 35.8707 74.7018C38.2594 71.2829 40.4416 67.4656 42.3568 63.356C42.5862 62.8636 42.6182 62.3202 42.4445 61.8651C42.2918 61.4648 41.9922 61.1612 41.6013 61.0102C41.4171 60.9397 41.2225 60.904 41.0265 60.9048Z" fill="#111111"/>
<path d="M44.8791 53.9228C43.7728 53.4954 42.5928 53.334 41.4217 53.4086C39.6617 53.522 37.9138 54.1675 36.3898 55.243C34.8668 56.3164 33.56 57.8308 32.7097 59.6552C31.073 63.1671 29.3856 66.0297 27.8514 68.297C27.1775 69.2931 27.3441 70.5615 28.2229 71.1308C28.3214 71.1948 28.4247 71.2471 28.5314 71.2884C29.3749 71.6141 30.4335 71.2441 31.0317 70.3599C32.7062 67.8832 34.5267 64.7891 36.2773 61.0329C36.5885 60.3668 37.0097 59.7641 37.5212 59.2527C38.2703 58.5018 39.1934 57.9678 40.1579 57.7134C41.1223 57.4591 42.1176 57.48 43.053 57.8413C43.6759 58.0819 44.1955 58.446 44.6154 58.8995C45.2437 59.5832 45.6394 60.4737 45.756 61.448C45.8728 62.4223 45.717 63.4662 45.2383 64.4935C43.5228 68.1746 41.7445 71.335 40.0294 74.0177C39.3833 75.0304 39.5854 76.2872 40.4826 76.8278C40.5664 76.8779 40.6533 76.9203 40.7424 76.9545C41.6091 77.2892 42.6926 76.8895 43.2804 75.9719C45.1099 73.1086 46.9962 69.7543 48.806 65.8709C49.3724 64.6556 49.6922 63.4005 49.7762 62.1847C49.9046 60.3594 49.5135 58.619 48.6754 57.172C47.8349 55.7241 46.5376 54.5628 44.8789 53.9223" fill="#F5F5F5"/>
<path d="M41.3918 77.292C41.1466 77.2927 40.9032 77.2478 40.6728 77.1595C40.5723 77.1208 40.4751 77.0733 40.3821 77.0175C39.9321 76.7464 39.6187 76.3011 39.4992 75.7636C39.3627 75.1495 39.4938 74.4688 39.8592 73.8962C41.7402 70.9537 43.4881 67.7579 45.054 64.3975C45.4954 63.4502 45.6678 62.4397 45.5522 61.4753C45.44 60.5389 45.0652 59.7008 44.4683 59.0511C44.0556 58.6054 43.5557 58.2671 42.9835 58.0461C42.1255 57.7147 41.1666 57.673 40.2103 57.925C39.2675 58.1737 38.3877 58.6875 37.6664 59.4106C37.1727 59.9043 36.7661 60.4861 36.4657 61.1291C34.8999 64.4891 33.1292 67.6373 31.2028 70.4866C30.5608 71.4356 29.4084 71.8588 28.4618 71.4934C28.3412 71.4468 28.2252 71.3876 28.1158 71.3167C27.6765 71.032 27.3771 70.5769 27.2727 70.0352C27.153 69.4142 27.303 68.7346 27.6844 68.1707C29.4497 65.5613 31.0783 62.664 32.5254 59.5592C33.367 57.7533 34.664 56.1981 36.2762 55.0619C37.8472 53.9533 39.6227 53.3062 41.4111 53.1908C42.6504 53.1116 43.8423 53.2892 44.9528 53.7179C46.6079 54.3571 47.9571 55.5122 48.8549 57.0587C49.7255 58.562 50.1164 60.3402 49.9855 62.2013C49.8971 63.479 49.5637 64.7463 48.9945 65.9673C47.3302 69.5385 45.4665 72.9454 43.4549 76.0939C42.9693 76.8515 42.1742 77.292 41.3918 77.292ZM41.4376 57.3262C42.0213 57.3262 42.5911 57.43 43.1262 57.6366C43.7572 57.8803 44.3089 58.2542 44.7658 58.7477C45.4263 59.4663 45.8402 60.3904 45.9637 61.4209C46.0894 62.4701 45.9035 63.5659 45.4265 64.5897C43.8522 67.968 42.095 71.181 40.2037 74.1396C39.9024 74.6119 39.7928 75.1678 39.9032 75.6643C39.9962 76.0827 40.2394 76.4287 40.5877 76.6388C40.6602 76.6822 40.7371 76.7197 40.8158 76.7501C41.6009 77.0535 42.5873 76.6665 43.1102 75.8504C45.1113 72.7186 46.9655 69.3286 48.6215 65.7753C49.167 64.6047 49.4865 63.3915 49.5711 62.1694C49.6959 60.3993 49.3255 58.7108 48.5001 57.286C47.6518 55.8248 46.3753 54.7325 44.8092 54.1278C43.7528 53.7198 42.6181 53.5512 41.4358 53.6267C39.7212 53.7373 38.0167 54.359 36.507 55.4245C34.9551 56.5181 33.7071 58.0142 32.8976 59.7514C31.4408 62.8774 29.8006 65.7952 28.0222 68.4237C27.707 68.8895 27.5819 69.4454 27.679 69.9486C27.7603 70.3706 27.9927 70.7246 28.3334 70.9454C28.4185 71.0006 28.5096 71.0473 28.6046 71.0839C29.3786 71.3828 30.3289 71.0252 30.8642 70.2338C32.7775 67.4039 34.5366 64.2759 36.0926 60.9371C36.4147 60.248 36.8504 59.6244 37.3795 59.0952C38.1528 58.3199 39.0965 57.769 40.1091 57.502C40.5434 57.3863 40.9896 57.3274 41.4376 57.3264V57.3262Z" fill="#111111"/>
<path d="M48.0873 47.0421C46.1161 46.281 44.0248 45.9948 41.9412 46.1305C38.8132 46.3344 35.7033 47.4854 32.9903 49.3947C30.2796 51.3047 27.9599 53.9897 26.447 57.2361C25.9287 58.3506 25.3756 59.447 24.7888 60.5233C24.2152 61.575 24.5165 62.798 25.4617 63.2574C25.5036 63.2777 25.5463 63.296 25.5893 63.3126C26.5159 63.6704 27.6652 63.1865 28.2132 62.1815C28.8508 61.0134 29.4516 59.8236 30.0147 58.614C30.7749 56.9826 31.7975 55.5524 32.9984 54.3519C34.7986 52.5536 37.0076 51.2709 39.3199 50.6605C41.6301 50.0492 44.0329 50.1007 46.261 50.9611C47.7441 51.5337 48.998 52.409 50.0039 53.5019C51.5128 55.1414 52.4586 57.2791 52.7399 59.6123C53.0203 61.9478 52.6439 64.468 51.5045 66.9128C50.9339 68.1376 50.3382 69.3492 49.7176 70.5469C49.1665 71.6099 49.4981 72.8226 50.4563 73.2535C50.4845 73.2662 50.5131 73.2782 50.542 73.2893C51.4883 73.6547 52.6586 73.1429 53.1923 72.1132C53.8449 70.8533 54.4717 69.5787 55.0724 68.2905C56.0801 66.1277 56.6441 63.899 56.7948 61.7384C57.0199 58.4968 56.3246 55.3992 54.8308 52.8224C53.3404 50.2442 51.0408 48.1827 48.0873 47.0421Z" fill="#F5F5F5"/>
<path d="M51.184 73.6252C50.9058 73.626 50.6304 73.5678 50.3741 73.454C50.1363 73.3487 49.9224 73.1916 49.7464 72.9932C49.5703 72.7948 49.4362 72.5595 49.3528 72.3028C49.1597 71.7168 49.2261 71.0388 49.535 70.4424C50.154 69.2474 50.7484 68.0386 51.318 66.8168C52.3986 64.4978 52.819 62.0161 52.5339 59.6395C52.2546 57.3247 51.3282 55.2548 49.8546 53.6536C48.8387 52.5497 47.6055 51.7126 46.1892 51.1657C44.08 50.3511 41.7221 50.2497 39.3703 50.8719C37.0697 51.4792 34.9157 52.7371 33.141 54.5098C31.9197 55.7306 30.9304 57.1438 30.2006 58.7097C29.6354 59.9236 29.0325 61.1176 28.3927 62.2899C27.8024 63.3726 26.5394 63.9121 25.5173 63.5172C25.469 63.4986 25.4215 63.478 25.3747 63.4555C25.1402 63.343 24.9308 63.1799 24.7602 62.9767C24.5896 62.7735 24.4616 62.5348 24.3846 62.2761C24.2049 61.6836 24.2864 61.0052 24.6085 60.4146C25.1929 59.3423 25.7438 58.2503 26.2603 57.1401C27.7431 53.9583 30.0303 51.2174 32.8744 49.2134C35.6517 47.2592 38.7821 46.1178 41.9279 45.9128C44.1062 45.771 46.2025 46.082 48.1585 46.8373C51.0684 47.961 53.4367 49.9914 55.0078 52.7089C56.5396 55.3512 57.2291 58.4792 57.0014 61.7541C56.844 64.0109 56.2576 66.2422 55.2583 68.3862C54.6562 69.6772 54.0281 70.9546 53.3743 72.2175C52.9209 73.0916 52.0448 73.625 51.184 73.625V73.6252ZM42.396 50.0335C43.7584 50.0335 45.0866 50.275 46.3326 50.7562C47.8078 51.3261 49.0933 52.1987 50.1531 53.3503C51.6896 55.0199 52.6553 57.1757 52.9458 59.5848C53.2413 62.046 52.8072 64.6132 51.6909 67.0088C51.1188 68.2364 50.5216 69.4508 49.8998 70.6514C49.6464 71.14 49.5902 71.6898 49.7452 72.1599C49.8099 72.3591 49.914 72.5417 50.0506 72.6956C50.1872 72.8496 50.3533 72.9714 50.5378 73.053C50.5629 73.0644 50.5878 73.0748 50.6131 73.0844C51.4728 73.4165 52.5254 72.9439 53.0101 72.0089C53.6611 70.7516 54.2865 69.4798 54.886 68.1945C55.8617 66.1008 56.4344 63.9232 56.5879 61.7225C56.8091 58.5387 56.1403 55.5005 54.6537 52.936C53.1319 50.3038 50.8364 48.3365 48.0157 47.2472C46.1139 46.5127 44.0746 46.2105 41.9538 46.3484C38.8815 46.5487 35.8218 47.6648 33.1055 49.5762C30.322 51.5375 28.084 54.2195 26.6332 57.3323C26.1127 58.451 25.5575 59.5515 24.9687 60.6321C24.7045 61.1167 24.6359 61.6677 24.7803 62.1439C24.8401 62.3447 24.9395 62.53 25.0719 62.6877C25.2043 62.8455 25.3668 62.9722 25.5488 63.0595C25.5853 63.0772 25.6229 63.0934 25.6609 63.1082C26.4985 63.4315 27.5405 62.9769 28.0331 62.0733C28.6683 60.9092 29.2671 59.7235 29.8284 58.5182C30.5799 56.9056 31.5985 55.4507 32.8555 54.1939C34.6818 52.3695 36.8997 51.0745 39.2695 50.4491C40.3167 50.172 41.3662 50.0339 42.396 50.0339V50.0335Z" fill="#111111"/>
<path d="M51.2924 40.162C47.1019 38.5437 42.5412 38.4189 38.1805 39.5391C33.8188 40.6561 29.6488 43.0093 26.2009 46.3545C25.3396 47.1896 25.2073 48.5031 25.9034 49.2907C26.081 49.4915 26.3015 49.645 26.5466 49.7388C27.2299 50.0027 28.085 49.8203 28.7189 49.2045C31.5675 46.4407 35.0262 44.4869 38.6333 43.5636C42.2437 42.6391 45.9947 42.7397 49.4663 44.0802C52.9356 45.4199 55.622 47.8055 57.4008 50.8112C59.1795 53.8169 60.0397 57.4388 59.8353 61.2209C59.7903 62.0665 60.2406 62.7519 60.9245 63.0161C61.1662 63.1095 61.4368 63.1501 61.7252 63.1267C62.8291 63.0342 63.7746 62.0349 63.8377 60.8915C64.0815 56.3092 63.0434 51.9419 60.8946 48.3107C58.7491 44.678 55.4809 41.7794 51.2926 40.1617" fill="#F5F5F5"/>
<path d="M61.5658 63.3514C61.3228 63.3526 61.0815 63.3084 60.8532 63.221C60.0604 62.9147 59.5796 62.125 59.6284 61.2089C59.8301 57.4798 58.9989 53.9243 57.225 50.9266C55.4096 47.8587 52.7021 45.5622 49.3952 44.2853C46.0818 43.0058 42.3778 42.8298 38.683 43.7759C35.0735 44.6996 31.6768 46.6324 28.8601 49.3651C28.1893 50.0167 27.2533 50.244 26.4756 49.9436C26.1996 49.8384 25.9514 49.6654 25.7518 49.439C25.4089 49.0511 25.2312 48.53 25.2516 47.9719C25.2756 47.3175 25.5705 46.6695 26.0606 46.1942C29.5197 42.8383 33.6938 40.4639 38.1317 39.3273C42.6895 38.1565 47.2651 38.3742 51.3644 39.9573C55.4673 41.5418 58.8237 44.3907 61.0711 48.196C63.262 51.8983 64.2903 56.2928 64.0451 60.9042C63.9762 62.1494 62.9431 63.2441 61.7417 63.3447C61.6826 63.3495 61.6238 63.3519 61.5655 63.3519L61.5658 63.3514ZM43.347 42.7397C45.4906 42.7397 47.5805 43.1195 49.5384 43.8756C52.9328 45.1865 55.7128 47.545 57.5775 50.696C59.3968 53.7705 60.2494 57.4141 60.043 61.2334C60.0046 61.9535 60.3789 62.5728 60.9964 62.8113C61.2176 62.8966 61.4576 62.9295 61.7095 62.9092C62.7115 62.8252 63.5737 61.9144 63.6309 60.8789C63.8714 56.358 62.8644 52.0519 60.7188 48.4259C58.5206 44.704 55.2366 41.9172 51.2214 40.3666C47.1998 38.8135 42.7075 38.6006 38.2303 39.751C33.8605 40.8701 29.7496 43.2089 26.3422 46.5146C25.9324 46.9119 25.6861 47.449 25.6663 47.9885C25.6502 48.4298 25.7886 48.8395 26.056 49.1421C26.2113 49.3179 26.4042 49.4522 26.6187 49.5339C27.2516 49.7782 28.0208 49.5861 28.5785 49.0442C31.4469 46.2611 34.907 44.2927 38.5849 43.3516C40.1803 42.943 41.7782 42.7397 43.347 42.7397Z" fill="#111111"/>
<path d="M54.5138 33.2899L54.4981 33.2837C50.8009 31.8531 46.8839 31.3171 42.977 31.5721C39.0678 31.8265 35.1697 32.8703 31.497 34.6001C30.4455 35.0955 29.867 36.3366 30.2066 37.3691C30.377 37.887 30.7447 38.2551 31.2014 38.4316C31.6581 38.6078 32.2036 38.5926 32.7302 38.3436C35.9173 36.8423 39.3019 35.9361 42.6867 35.7175C46.0726 35.4967 49.4607 35.9592 52.6732 37.1999C55.8685 38.4337 58.5788 40.3182 60.7523 42.6718C62.9258 45.0257 64.5623 47.8489 65.5989 50.962C65.7695 51.4746 66.1353 51.8392 66.5891 52.0146C67.0481 52.1917 67.5969 52.1758 68.1256 51.9238C69.1761 51.4253 69.7523 50.1834 69.4075 49.1515C68.2162 45.5681 66.3314 42.3134 63.822 39.5967C61.3163 36.8842 58.1873 34.7081 54.5142 33.2896" fill="#F5F5F5"/>
<path d="M67.2333 52.3516C66.9889 52.3523 66.7464 52.3075 66.5168 52.2194C65.9838 52.0137 65.5881 51.5926 65.4022 51.0341C64.3612 47.908 62.7465 45.1457 60.6027 42.8241C58.3848 40.4222 55.6925 38.5989 52.6009 37.4049C49.4916 36.2042 46.1599 35.7098 42.6989 35.9354C39.3548 36.1514 36.0291 37.0286 32.8144 38.5428C32.2556 38.807 31.657 38.8401 31.1293 38.6364C30.5932 38.4294 30.1956 38.0046 30.0101 37.4405C29.6366 36.3047 30.2653 34.941 31.4117 34.4011C35.1628 32.6343 39.0493 31.6092 42.9637 31.3544C47.0222 31.0893 50.9268 31.6696 54.5692 33.0789L54.5134 33.2896L54.5849 33.0848C58.2057 34.4831 61.3633 36.6228 63.9701 39.4446C66.4886 42.1714 68.3839 45.4129 69.6027 49.0793C69.9816 50.213 69.357 51.5782 68.2104 52.1223C67.8911 52.2746 67.5584 52.3511 67.2335 52.3511L67.2333 52.3516ZM44.3192 35.4459C47.2499 35.4459 50.0765 35.9651 52.7441 36.9952C55.8949 38.2118 58.6389 40.0708 60.9006 42.52C63.0868 44.8874 64.733 47.7036 65.7941 50.8899C65.9381 51.3232 66.2456 51.6498 66.66 51.8097C67.0879 51.975 67.5777 51.9449 68.0392 51.725C68.9949 51.2715 69.5205 50.1495 69.2109 49.2237C68.012 45.6171 66.1485 42.4294 63.6723 39.7488C61.1094 36.9745 58.0036 34.8701 54.442 33.4945L54.4258 33.4881C50.8376 32.0998 46.9899 31.5282 42.9892 31.7896C39.1249 32.0411 35.2866 33.0536 31.5812 34.799C30.6259 35.2491 30.097 36.37 30.4021 37.2978C30.5461 37.7356 30.855 38.0657 31.2721 38.2267C31.6974 38.391 32.1846 38.3619 32.6442 38.1447C35.905 36.6086 39.2792 35.7188 42.6732 35.4997C43.2249 35.4637 43.7739 35.4459 44.319 35.4459H44.3192Z" fill="#111111"/>
<path d="M57.7067 26.4009C51.971 24.186 45.8078 23.7115 39.7762 24.7272C38.6696 24.9129 37.7984 25.9799 37.831 27.113C37.8517 27.8883 38.2906 28.4909 38.9205 28.7341C39.2106 28.8462 39.5411 28.882 39.8899 28.8235C45.271 27.9199 50.7547 28.3399 55.8806 30.3194C60.9743 32.2865 65.098 35.5543 68.1187 39.6722C68.3088 39.9309 68.5649 40.1273 68.8572 40.2387C69.4896 40.4829 70.2752 40.3489 70.9031 39.821C71.8165 39.0533 72.0499 37.7398 71.4262 36.8887C68.0428 32.2758 63.4061 28.6019 57.7067 26.4009Z" fill="#F5F5F5"/>
<path d="M69.4998 40.5747C69.2558 40.5756 69.0135 40.5312 68.7842 40.4436C68.4553 40.3177 68.1671 40.0964 67.9528 39.8055C64.879 35.6149 60.6791 32.4057 55.8076 30.5243C50.9043 28.6307 45.4109 28.1172 39.9213 29.0391C39.5497 29.1015 39.1783 29.0668 38.8475 28.9392C38.1142 28.656 37.6447 27.9586 37.6221 27.1193C37.5866 25.8837 38.5375 24.7139 39.742 24.5119C45.9707 23.463 52.2072 24.0455 57.7767 26.1963C63.3145 28.3349 68.0907 31.9862 71.5889 36.7557C72.2806 37.6999 72.0304 39.1515 71.0311 39.9916C70.5771 40.3731 70.0308 40.5749 69.4998 40.5749V40.5747ZM45.2238 28.1569C48.9481 28.1569 52.5858 28.8153 55.9507 30.1148C60.8959 32.0245 65.1599 35.2834 68.2816 39.5391C68.4481 39.7649 68.672 39.9365 68.9274 40.0341C69.5143 40.2608 70.2213 40.114 70.7722 39.6508C71.5961 38.9582 71.815 37.779 71.2604 37.022C67.8102 32.318 63.098 28.7162 57.6339 26.606C52.1308 24.4807 45.9666 23.9059 39.8078 24.943C38.8021 25.1116 38.0078 26.0824 38.0372 27.1069C38.0549 27.7644 38.4203 28.3096 38.9909 28.5299C39.2552 28.632 39.5544 28.6593 39.8561 28.6087C41.6313 28.3095 43.4262 28.1585 45.224 28.1573L45.2238 28.1569Z" fill="#111111"/>
<path d="M60.946 19.5365L60.9107 19.5229L60.8754 19.5094C58.5077 18.5951 56.0753 17.9328 53.6127 17.5063C52.5545 17.3224 51.4349 18.0936 51.112 19.2256C50.8265 20.2341 51.2685 21.1892 52.1157 21.5164C52.223 21.5577 52.3337 21.5883 52.4464 21.6078L52.4475 21.6054C54.6969 21.997 56.9175 22.6022 59.0856 23.4395C61.2514 24.2759 63.2749 25.3097 65.1452 26.5089C65.2427 26.5717 65.3446 26.6232 65.4502 26.664C66.2962 26.9908 67.3558 26.616 67.9532 25.7294C68.6228 24.7316 68.4531 23.465 67.5733 22.8978C65.5253 21.5825 63.3135 20.4512 60.946 19.5369" fill="#F5F5F5"/>
<path d="M66.0899 26.9989C65.8477 26.9998 65.6074 26.9557 65.3798 26.8687C65.2606 26.8228 65.1461 26.7645 65.0379 26.6948C63.1522 25.4858 61.1258 24.4591 59.0152 23.6441C56.9143 22.8328 54.7039 22.2211 52.4449 21.8258C52.4344 21.8257 52.4239 21.8248 52.4136 21.823C52.2881 21.8011 52.1648 21.7671 52.0453 21.7213C51.0763 21.3472 50.6007 20.2714 50.9142 19.1636C51.2662 17.9302 52.4924 17.0907 53.6478 17.2914C56.158 17.7262 58.6143 18.4036 60.948 19.305L61.0183 19.3321H61.0185C63.3516 20.233 65.5937 21.3701 67.6824 22.7117C68.1225 22.9953 68.4229 23.4493 68.5289 23.9901C68.6505 24.6105 68.5028 25.2903 68.1237 25.8553C67.6359 26.5792 66.8532 26.9993 66.0899 26.9993V26.9989ZM52.4528 21.3871C52.4626 21.3871 52.4725 21.3882 52.4825 21.3899C54.7776 21.7896 57.0237 22.4102 59.1581 23.2344C61.2941 24.0593 63.3451 25.0983 65.2545 26.3224C65.3387 26.3767 65.4288 26.4225 65.5228 26.459C66.298 26.7583 67.2491 26.3983 67.7849 25.6029C68.098 25.1365 68.221 24.5804 68.1225 24.0776C68.0399 23.6561 67.8067 23.3031 67.4657 23.0832C65.4006 21.7569 63.1829 20.6323 60.8754 19.7411L60.811 19.7162C58.4954 18.822 56.0646 18.1516 53.5799 17.7212C52.6232 17.5545 51.6054 18.2576 51.3116 19.2878C51.0626 20.1676 51.4311 21.0186 52.188 21.3109C52.2723 21.3434 52.3613 21.369 52.4528 21.3866V21.3871Z" fill="#111111"/>
</g>
<defs>
<linearGradient id="paint0_linear_2506_28485" x1="25.1038" y1="94.3428" x2="104.204" y2="33.6733" gradientUnits="userSpaceOnUse">
<stop offset="0.095" stop-color="#A5A5A5"/>
<stop offset="1" stop-color="#F5F5F5"/>
</linearGradient>
<clipPath id="clip0_2506_28485">
<rect width="100" height="100" fill="white" transform="translate(0 0.5)"/>
</clipPath>
</defs>
</svg>
