<svg width="74" height="63" viewBox="0 0 74 63" fill="none" xmlns="http://www.w3.org/2000/svg">
<g clip-path="url(#clip0_2504_12631)">
<path d="M13.3285 52.8109L17.6705 56.3249L4.65549 60.7137L0.313477 57.1997L13.3285 52.8109Z" fill="#FF6F1E"/>
<path d="M4.65542 60.8781C4.61821 60.8781 4.58149 60.8655 4.55169 60.8415L0.209675 57.3274C0.186703 57.3089 0.169137 57.2846 0.158819 57.257C0.148501 57.2294 0.145811 57.1995 0.151031 57.1705C0.156251 57.1415 0.169188 57.1144 0.188487 57.0921C0.207785 57.0698 0.232734 57.0531 0.260719 57.0438L13.2756 52.6548C13.3289 52.6367 13.3882 52.6474 13.432 52.6828L17.774 56.1968C17.797 56.2153 17.8145 56.2396 17.8249 56.2673C17.8352 56.2949 17.8379 56.3248 17.8327 56.3538C17.8274 56.3828 17.8145 56.4098 17.7952 56.4321C17.7759 56.4544 17.7509 56.4711 17.723 56.4805L4.70812 60.8693C4.69116 60.8751 4.67335 60.8782 4.65542 60.8781ZM0.649475 57.2602L4.68869 60.529L17.3342 56.2647L13.295 52.9959L0.649475 57.2602Z" fill="#111111"/>
<path d="M60.2729 7.6825L64.615 11.1964C72.0519 17.215 75.484 26.6342 72.7553 36.6458C68.4607 52.4029 50.5284 63.6604 32.7029 61.7892C26.8562 61.1755 21.7466 59.2246 17.6701 56.3248L13.3281 52.8109C17.4045 55.7105 22.5142 57.6616 28.3609 58.2753C46.1863 60.1465 64.1187 48.8892 68.4133 33.1319C71.142 23.1204 67.7099 13.7011 60.2729 7.6825Z" fill="#FF6F1E"/>
<path d="M36.5854 62.1559C35.2874 62.1559 33.9875 62.0895 32.6858 61.9528C27.0162 61.3575 21.791 59.4578 17.5749 56.4588L13.2246 52.9387C13.1916 52.9117 13.1702 52.873 13.1652 52.8306C13.1602 52.7883 13.1718 52.7456 13.1977 52.7117C13.2235 52.6777 13.2616 52.6551 13.3038 52.6487C13.346 52.6422 13.389 52.6524 13.4239 52.677C17.594 55.6433 22.7651 57.5225 28.3782 58.1117C29.6635 58.2463 30.955 58.3136 32.2474 58.3133C48.6324 58.3137 64.2978 47.6066 68.2546 33.0889C70.8742 23.4774 67.8517 14.0274 60.1693 7.81044C60.1522 7.79693 60.138 7.78017 60.1274 7.76113C60.1169 7.74209 60.1102 7.72115 60.1078 7.69951C60.1054 7.67788 60.1074 7.65599 60.1135 7.63511C60.1196 7.61423 60.1299 7.59477 60.1436 7.57787C60.1573 7.56097 60.1743 7.54696 60.1935 7.53665C60.2127 7.52634 60.2337 7.51994 60.2554 7.51781C60.2771 7.51569 60.299 7.51789 60.3198 7.52428C60.3407 7.53067 60.36 7.54113 60.3768 7.55504L64.7188 11.0689C72.5054 17.3706 75.5692 26.9483 72.9143 36.6894C68.9199 51.3453 53.1126 62.1553 36.5853 62.1563L36.5854 62.1559ZM15.6668 54.4918L17.7741 56.1971C21.9358 59.1571 27.1071 61.0363 32.7203 61.6257C34.0055 61.7604 35.297 61.8277 36.5894 61.8274C52.9744 61.8277 68.6398 51.1206 72.5966 36.6027C75.2162 26.9913 72.1937 17.5415 64.5113 11.3243L63.407 10.4305C68.9185 16.5815 70.85 24.8183 68.5723 33.1754C64.5778 47.8311 48.7706 58.6412 32.2432 58.6421C30.9452 58.6421 29.6453 58.5756 28.3437 58.439C23.7206 57.9537 19.3927 56.6007 15.6667 54.4919L15.6668 54.4918Z" fill="#111111"/>
<path d="M43.9141 1.21077C61.7396 3.08192 72.7086 17.3732 68.4135 33.1319C64.1189 48.889 46.1865 60.1465 28.3611 58.2753C22.5144 57.6616 17.4048 55.7107 13.3283 52.8109L0.313476 57.1996L7.30598 46.8284C3.25936 41.15 1.8005 33.9221 3.86267 26.3556C8.15776 10.5971 26.0901 -0.660374 43.9141 1.21077Z" fill="white"/>
<path d="M32.2427 58.642C30.9447 58.642 29.6447 58.5755 28.3431 58.4389C22.7044 57.847 17.505 55.9645 13.3008 52.9935L0.365689 57.3556C0.333071 57.3666 0.297826 57.3671 0.264911 57.357C0.231996 57.347 0.203066 57.3269 0.182187 57.2995C0.161307 57.2722 0.14953 57.239 0.148509 57.2047C0.147489 57.1703 0.157277 57.1365 0.176498 57.108L7.10545 46.831C2.92035 40.9006 1.71209 33.619 3.70346 26.3126C8.01156 10.5051 26.0587 -0.828039 43.9308 1.04722C53.0315 2.00253 60.8432 6.33373 65.3629 12.9299C69.3889 18.8057 70.5285 25.9954 68.5717 33.1751C64.5773 47.8308 48.77 58.6418 32.2427 58.6418L32.2427 58.642ZM13.3277 52.6465C13.3614 52.6465 13.3949 52.6569 13.4232 52.6771C17.5933 55.6433 22.7644 57.5227 28.3775 58.1118C46.0975 59.9727 63.9865 48.7467 68.2539 33.0888C70.1851 26.0038 69.0618 18.9106 65.091 13.1158C60.6259 6.59916 52.9006 2.31959 43.8963 1.37448C26.1759 -0.485813 8.28868 10.7404 4.02108 26.3991C2.04585 33.6466 3.25987 40.8681 7.43954 46.7333C7.45899 46.7605 7.46964 46.7931 7.47009 46.8265C7.47053 46.86 7.46073 46.8928 7.44201 46.9206L0.721349 56.8884L13.275 52.6551C13.292 52.6493 13.3098 52.6463 13.3277 52.6463L13.3277 52.6465Z" fill="#111111"/>
<path d="M53.3796 18.1134C54.1104 18.1901 54.7649 18.5522 55.1864 19.1899C56.0742 20.5334 55.5882 22.5933 54.1015 23.7876L31.8782 41.6676C31.1013 42.2925 30.1987 42.5602 29.3874 42.475C28.7213 42.4051 28.1157 42.096 27.6931 41.5534L19.698 31.2896C18.7156 30.0277 19.0732 27.9662 20.4975 26.6841C21.3072 25.9552 22.2874 25.6357 23.1632 25.7276C23.8279 25.7973 24.4323 26.104 24.8568 26.6487L31.1846 34.774L50.8879 18.9217C51.6692 18.2935 52.571 18.0286 53.3796 18.1134Z" fill="#FFD3A8"/>
<path d="M29.6806 42.6548C29.5762 42.6548 29.4726 42.6495 29.3699 42.6386C28.6393 42.5618 27.9976 42.2124 27.5628 41.6546L19.5677 31.3907C18.5351 30.0642 18.9026 27.8981 20.3868 26.562C21.203 25.8273 22.2195 25.4635 23.1799 25.5641C23.9102 25.6408 24.5517 25.9901 24.9865 26.5477L31.2116 34.541L50.7844 18.7936C51.5657 18.1652 52.5177 17.8577 53.3967 17.9498C54.2055 18.0347 54.8898 18.443 55.3237 19.0993C56.2561 20.5103 55.7539 22.6709 54.2045 23.9157L31.981 41.7955C31.2916 42.3502 30.4686 42.6546 29.6804 42.6546L29.6806 42.6548ZM22.8625 25.8768C22.0813 25.8768 21.2737 26.2068 20.6076 26.8064C19.2487 28.0296 18.899 29.9957 19.8278 31.1888L27.8229 41.4524C28.2023 41.9391 28.7639 42.2441 29.4045 42.3116C30.1981 42.3953 31.0614 42.1134 31.7749 41.5394L53.9984 23.6594C55.4192 22.5181 55.8904 20.5539 55.049 19.2806C54.6706 18.7079 54.0715 18.3514 53.3626 18.2769C52.5704 18.1935 51.7053 18.4754 50.9912 19.0497L31.288 34.9021C31.271 34.9158 31.2514 34.926 31.2304 34.932C31.2094 34.9381 31.1874 34.9399 31.1657 34.9374C31.144 34.9349 31.123 34.9281 31.104 34.9173C31.0849 34.9066 31.0682 34.8922 31.0548 34.875L24.727 26.7497C24.3422 26.2563 23.7956 25.9595 23.1458 25.8912C23.0517 25.8814 22.9572 25.8765 22.8626 25.8766L22.8625 25.8768Z" fill="#111111"/>
</g>
<defs>
<clipPath id="clip0_2504_12631">
<rect width="73.7026" height="61.3139" fill="white" transform="translate(0.148438 0.843063)"/>
</clipPath>
</defs>
</svg>
